<svg width="25" height="25" viewBox="0 0 25 25" fill="none" xmlns="http://www.w3.org/2000/svg">
<path d="M24.0375 11.5188H3.26208L13.1661 1.63316C13.3454 1.45325 13.446 1.20987 13.446 0.956193C13.446 0.702513 13.3454 0.459141 13.1661 0.279229C12.9858 0.100384 12.7419 0 12.4876 0C12.2333 0 11.9894 0.100384 11.809 0.279229L0.2591 11.802C0.213572 11.847 0.173218 11.8969 0.138788 11.9509C0.123455 11.966 0.108995 11.9821 0.0954762 11.9989C0.0954762 12.0325 0.061789 12.0613 0.0473516 12.0949L0.0184768 12.1909C0.0157101 12.2181 0.0157101 12.2454 0.0184768 12.2725C-0.00615892 12.3962 -0.00615892 12.5234 0.0184768 12.647C0.0157101 12.6742 0.0157101 12.7015 0.0184768 12.7287L0.0473516 12.8247C0.0473516 12.8583 0.0810388 12.8871 0.0954762 12.9207C0.108123 12.9457 0.1226 12.9698 0.138788 12.9927C0.173218 13.0466 0.213572 13.0966 0.2591 13.1416L11.809 24.6644C11.8953 24.7649 12.0015 24.8465 12.1209 24.9042C12.2403 24.9618 12.3704 24.9942 12.5029 24.9993C12.6355 25.0044 12.7677 24.9821 12.8912 24.9338C13.0147 24.8856 13.1269 24.8123 13.2207 24.7188C13.3145 24.6252 13.3879 24.5133 13.4363 24.39C13.4846 24.2668 13.507 24.1349 13.5019 24.0027C13.4967 23.8705 13.4643 23.7407 13.4065 23.6216C13.3487 23.5024 13.2669 23.3965 13.1661 23.3104L3.26208 13.4392H24.0375C24.2928 13.4392 24.5376 13.3381 24.7181 13.158C24.8986 12.9779 25 12.7337 25 12.479C25 12.2243 24.8986 11.9801 24.7181 11.8C24.5376 11.6199 24.2928 11.5188 24.0375 11.5188Z" fill="black"/>
</svg>
